<svg xmlns="http://www.w3.org/2000/svg">
    <symbol id="code">
        <path d="M23 10.826v2.349c-1.562 0-3 1.312-3 2.857 0 2.181 1.281 5.968-6 5.968v-2.002c4.917 0 3.966-1.6 3.966-3.967 0-2.094 1.211-3.5 2.278-4.031-1.067-.531-2.278-1.438-2.278-3.312 0-2.372.94-4.692-3.966-4.686v-2.002c7.285 0 6 4.506 6 6.688 0 1.544 1.438 2.138 3 2.138zm-19-2.138c0-2.182-1.285-6.688 6-6.688v2.002c-4.906-.007-3.966 2.313-3.966 4.686 0 1.875-1.211 2.781-2.278 3.312 1.067.531 2.278 1.938 2.278 4.031 0 2.367-.951 3.967 3.966 3.967v2.002c-7.281 0-6-3.787-6-5.969 0-1.545-1.438-2.857-3-2.857v-2.349c1.562.001 3-.593 3-2.137zm9 5.312v1.278c0 1.143-.722 2.068-1.774 2.276l-.199-.431c.487-.184.797-.773.797-1.216h-.824v-1.907h2zm0-6h-2v2h2v-2z"/>
    </symbol>
    <symbol id="education">
        <path d="M20 12.875v5.068c0 2.754-5.789 4.057-9 4.057-3.052 0-9-1.392-9-4.057v-6.294l9 4.863 9-3.637zm-8.083-10.875l-12.917 5.75 12 6.5 11-4.417v7.167h2v-8.25l-12.083-6.75zm13.083 20h-4c.578-1 1-2.5 1-4h2c0 1.516.391 2.859 1 4z"/>
    </symbol>
    <symbol id="phone">
        <path d="M20 22.621l-3.521-6.795c-.008.004-1.974.97-2.064 1.011-2.24 1.086-6.799-7.82-4.609-8.994l2.083-1.026-3.493-6.817-2.106 1.039c-7.202 3.755 4.233 25.982 11.6 22.615.121-.055 2.102-1.029 2.11-1.033z"/>
    </symbol>
    <symbol id="email">
        <path d="M12 12.713l-11.985-9.713h23.97l-11.985 9.713zm0 2.574l-12-9.725v15.438h24v-15.438l-12 9.725z"/>
    </symbol>
    <symbol id="experience">
        <path d="M22 24h-20l-2-10h24l-2 10zm-1.444-22.001l.439-1.999h-17.994l.439 1.999h17.116zm1.7 4.001l.37-2h-21.256l.371 2h20.515zm-19.731 6l-.254-2h19.45l-.262 2h2.017l.524-4h-24l.509 4h2.016z"/>
    </symbol>
    <symbol id="info">
        <path d="M12 2c5.514 0 10 4.486 10 10s-4.486 10-10 10-10-4.486-10-10 4.486-10 10-10zm0-2c-6.627 0-12 5.373-12 12s5.373 12 12 12 12-5.373 12-12-5.373-12-12-12zm1 18h-2v-8h2v8zm-1-12.25c.69 0 1.25.56 1.25 1.25s-.56 1.25-1.25 1.25-1.25-.56-1.25-1.25.56-1.25 1.25-1.25z"/>
    </symbol>
    <symbol id="target">
        <path d="M12 2c5.514 0 10 4.486 10 10s-4.486 10-10 10-10-4.486-10-10 4.486-10 10-10zm0-2c-6.627 0-12 5.373-12 12s5.373 12 12 12 12-5.373 12-12-5.373-12-12-12zm-5.91 11c.424-2.507 2.403-4.486 4.91-4.91v-2.021c-3.617.452-6.479 3.314-6.931 6.931h2.021zm6.91-4.91c2.507.423 4.486 2.402 4.91 4.91h2.021c-.452-3.617-3.314-6.479-6.931-6.931v2.021zm4.91 6.91c-.424 2.507-2.403 4.486-4.91 4.91v2.021c3.617-.452 6.479-3.314 6.931-6.931h-2.021zm-6.91 4.91c-2.507-.424-4.486-2.403-4.91-4.91h-2.021c.452 3.617 3.313 6.479 6.931 6.931v-2.021zm1-7.91c-1.104 0-2 .896-2 2s.896 2 2 2 2-.896 2-2-.896-2-2-2z"/>
    </symbol>
    <symbol id="twitter">
        <path d="M24 4.557c-.883.392-1.832.656-2.828.775 1.017-.609 1.798-1.574 2.165-2.724-.951.564-2.005.974-3.127 1.195-.897-.957-2.178-1.555-3.594-1.555-3.179 0-5.515 2.966-4.797 6.045-4.091-.205-7.719-2.165-10.148-5.144-1.29 2.213-.669 5.108 1.523 6.574-.806-.026-1.566-.247-2.229-.616-.054 2.281 1.581 4.415 3.949 4.89-.693.188-1.452.232-2.224.084.626 1.956 2.444 3.379 4.6 3.419-2.07 1.623-4.678 2.348-7.29 2.04 2.179 1.397 4.768 2.212 7.548 2.212 9.142 0 14.307-7.721 13.995-14.646.962-.695 1.797-1.562 2.457-2.549z"/>
    </symbol>
    <symbol id="dot">
        <circle cx="12" cy="12" r="12"/>
    </symbol>
    <symbol id="empty-dot">
        <path d="M12 2c5.514 0 10 4.486 10 10s-4.486 10-10 10-10-4.486-10-10 4.486-10 10-10zm0-2c-6.627 0-12 5.373-12 12s5.373 12 12 12 12-5.373 12-12-5.373-12-12-12z"/>
    </symbol>
    <symbol id="light-bulb">
        <path d="M19 6.734c0 4.164-3.75 6.98-3.75 10.266h-1.992c.001-2.079.997-3.826 1.968-5.513.912-1.585 1.774-3.083 1.774-4.753 0-3.108-2.517-4.734-5.004-4.734-2.483 0-4.996 1.626-4.996 4.734 0 1.67.862 3.168 1.774 4.753.971 1.687 1.966 3.434 1.967 5.513h-1.991c0-3.286-3.75-6.103-3.75-10.266 0-4.343 3.498-6.734 6.996-6.734 3.502 0 7.004 2.394 7.004 6.734zm-4 11.766c0 .276-.224.5-.5.5h-5c-.276 0-.5-.224-.5-.5s.224-.5.5-.5h5c.276 0 .5.224.5.5zm0 2c0 .276-.224.5-.5.5h-5c-.276 0-.5-.224-.5-.5s.224-.5.5-.5h5c.276 0 .5.224.5.5zm-1.701 3.159c-.19.216-.465.341-.753.341h-1.093c-.288 0-.562-.125-.752-.341l-1.451-1.659h5.5l-1.451 1.659zm-2.182-11.123l3.633-5.536h-2.113l1.05-3.463-3.794 5.463h2.302l-1.078 3.536z"/>
    </symbol>
    <symbol id="presentation">
        <path d="M7.496 20h2.633l-3.42 4h-2.627l3.414-4zm9.504-14h-8v1h8v-1zm-6 18h2v-4h-2v4zm2.855-4l3.42 4h2.627l-3.414-4h-2.633zm.145-8h-5v1h5v-1zm3-2h-8v1h8v-1zm0-2h-8v1h8v-1zm6-5h-1v8c0 1.625-5 7-7 7h-13v-15h-1v-3h22v3zm-3 0h-16v13h10.682c2.077 0 1.318-4 1.318-4s4 .825 4-1.229v-7.771zm-12 3h-1v1h1v-1zm0 2h-1v1h1v-1zm0 2h-1v1h1v-1zm0 2h-1v1h1v-1z"/>
    </symbol>
    <symbol id="handshake">
        <path d="M11.329 19.6c-.185.252-.47.385-.759.385-.194 0-.389-.06-.558-.183-.419-.309-.509-.896-.202-1.315l1.077-1.456c.308-.417.896-.508 1.315-.199.421.306.511.895.201 1.313l-1.074 1.455zm-.825-2.839c.308-.418.217-1.007-.201-1.316-.421-.308-1.008-.216-1.317.203l-1.073 1.449c-.309.419-.217 1.009.202 1.317.417.307 1.007.218 1.315-.202l1.074-1.451zm-1.9-1.388c.309-.417.217-1.007-.203-1.315-.418-.307-1.007-.216-1.314.202l-1.083 1.461c-.308.419-.209.995.209 1.304.421.308 1 .229 1.308-.19l1.083-1.462zm-1.898-1.386c.308-.419.219-1.007-.203-1.315-.419-.309-1.007-.218-1.315.201l-1.075 1.451c-.308.418-.217 1.008.202 1.315.419.307 1.008.218 1.315-.202l1.076-1.45zm17.294-8.438s-1.555.301-2.667.479c-2.146.344-4.144-.416-6.361-1.562-.445-.229-.957-.466-1.458-.466-.461 0-.913.209-1.292.639-1.366 1.547-2.16 2.915-3.785 3.864-.801.468.14 1.934 1.86 1.331.878-.308 1.736-.895 2.706-1.677.762-.615 1.22-.524 1.879.135 1.238 1.238 5.404 5.351 5.404 5.351 1.317-.812 2.422-1.312 3.713-1.792v-6.302zm-10.524 12.662c-.158.459-.618 1.001-.953 1.455.297.235.608.334.882.334.717 0 1.188-.671.542-1.318l-.471-.471zm6.506-3.463c-1.07-1.055-4.732-4.667-5.803-5.713-.165-.161-.421-.18-.608-.044-.639.464-2.082 1.485-2.944 1.788-1.685.59-3.115-.222-3.422-1.359-.192-.712.093-1.411.727-1.781 1.008-.589 1.657-1.375 2.456-2.363-.695-.539-1.35-.732-1.991-.732-1.706 0-3.317 1.366-5.336 1.231-1.373-.09-3.061-.403-3.061-.403v6.333c1.476.321 2.455.464 3.92 1.199l.462-.624c.364-.496.949-.792 1.564-.792.87 0 1.622.578 1.861 1.388.951 0 1.667.602 1.898 1.387.826-.031 1.641.519 1.897 1.385 1.171 0 2.017.92 1.981 2.007l1.168 1.168c.367.368.963.367 1.331 0 .368-.368.368-.964 0-1.332l-1.686-1.687c-.22-.22.113-.553.333-.333l2.032 2.033c.368.368.963.368 1.331 0s.368-.963 0-1.331l-2.501-2.502c-.221-.218.113-.553.333-.333l2.7 2.701c.368.368.963.368 1.331 0 .358-.356.361-.922.027-1.291z"/>
    </symbol>
</svg>
